<svg width="32" height="33" viewBox="0 0 32 33" fill="none" xmlns="http://www.w3.org/2000/svg">
<rect opacity="0.6" x="0.283203" y="0.982666" width="31.4913" height="31.4913" rx="10" fill="#D7E3FF"/>
<path d="M20.4185 21.7467H19.8625C19.2773 21.7467 18.7213 21.9735 18.3116 22.3832L17.0607 23.6195C16.4901 24.1828 15.561 24.1828 14.9904 23.6195L13.7395 22.3832C13.3298 21.9735 12.7665 21.7467 12.1886 21.7467H11.6399C10.4256 21.7467 9.44531 20.7738 9.44531 19.5741V11.5929C9.44531 10.3931 10.4256 9.42021 11.6399 9.42021H20.4185C21.6328 9.42021 22.6131 10.3931 22.6131 11.5929V19.5741C22.6131 20.7665 21.6328 21.7467 20.4185 21.7467Z" stroke="#2B55B7" stroke-width="1.5" stroke-miterlimit="10" stroke-linecap="round" stroke-linejoin="round"/>
<path d="M12.3711 14.6508C12.3711 13.9704 12.9271 13.4144 13.6074 13.4144C14.2877 13.4144 14.8437 13.9704 14.8437 14.6508C14.8437 16.0261 12.8905 16.1724 12.4589 17.4818C12.3711 17.7525 12.5979 18.0232 12.8832 18.0232H14.8437" stroke="#2B55B7" stroke-width="1.5" stroke-linecap="round" stroke-linejoin="round"/>
<path d="M18.9842 18.0159V13.8388C18.9842 13.6486 18.8599 13.4803 18.677 13.4291C18.4941 13.3778 18.2966 13.451 18.1942 13.6119C17.6675 14.4605 17.0969 15.4262 16.5994 16.2748C16.5189 16.4138 16.5189 16.5967 16.5994 16.7356C16.6799 16.8746 16.8335 16.9624 17.0018 16.9624H19.6865" stroke="#2B55B7" stroke-width="1.5" stroke-linecap="round" stroke-linejoin="round"/>
</svg>
