<svg width="33" height="32" viewBox="0 0 33 32" fill="none" xmlns="http://www.w3.org/2000/svg">
<rect opacity="0.5" x="0.624023" y="0.307617" width="31.4913" height="31.4913" rx="10" fill="#FAEFD1"/>
<path d="M22.8877 15.4093C22.8877 18.9866 20.2907 22.3371 16.7427 23.3173C16.5013 23.3832 16.2379 23.3832 15.9965 23.3173C12.4485 22.3371 9.85156 18.9866 9.85156 15.4093V12.1979C9.85156 11.598 10.3051 10.9177 10.8684 10.6909L14.9431 9.02298C15.8575 8.64989 16.889 8.64989 17.8034 9.02298L21.8782 10.6909C22.4341 10.9177 22.895 11.598 22.895 12.1979L22.8877 15.4093Z" stroke="#FCBA1C" stroke-width="1.5" stroke-linecap="round" stroke-linejoin="round"/>
<path d="M16.3698 16.4189C17.1779 16.4189 17.8329 15.7638 17.8329 14.9558C17.8329 14.1477 17.1779 13.4927 16.3698 13.4927C15.5618 13.4927 14.9067 14.1477 14.9067 14.9558C14.9067 15.7638 15.5618 16.4189 16.3698 16.4189Z" stroke="#FCBA1C" stroke-width="1.5" stroke-miterlimit="10" stroke-linecap="round" stroke-linejoin="round"/>
<path d="M16.3696 16.4189V18.6136" stroke="#FCBA1C" stroke-width="1.5" stroke-miterlimit="10" stroke-linecap="round" stroke-linejoin="round"/>
</svg>
