<svg width="32" height="32" viewBox="0 0 32 32" fill="none" xmlns="http://www.w3.org/2000/svg">
<rect opacity="0.6" x="0.283203" y="0.456665" width="31.4913" height="31.4913" rx="10" fill="#F3F6FB"/>
<path d="M15.1146 9.21608C15.6267 8.78447 16.4534 8.78447 16.9508 9.21608L18.1067 10.2037C18.3261 10.3866 18.7431 10.5402 19.0357 10.5402H20.2793C21.0548 10.5402 21.6912 11.1766 21.6912 11.9521V13.1957C21.6912 13.4883 21.8449 13.898 22.0277 14.1174L23.0153 15.2733C23.4469 15.7854 23.4469 16.612 23.0153 17.1094L22.0277 18.2653C21.8449 18.4848 21.6912 18.8944 21.6912 19.187V20.4307C21.6912 21.2061 21.0548 21.8425 20.2793 21.8425H19.0357C18.7431 21.8425 18.3334 21.9962 18.114 22.1791L16.9581 23.1666C16.4461 23.5982 15.6194 23.5982 15.122 23.1666L13.9661 22.1791C13.7467 21.9962 13.3297 21.8425 13.0444 21.8425H11.7642C10.9887 21.8425 10.3523 21.2061 10.3523 20.4307V19.1797C10.3523 18.8944 10.206 18.4774 10.0231 18.2653L9.03551 17.1021C8.61121 16.5974 8.61121 15.778 9.03551 15.2733L10.0231 14.1101C10.206 13.8907 10.3523 13.481 10.3523 13.1957V11.9594C10.3523 11.1839 10.9887 10.5475 11.7642 10.5475H13.0297C13.3224 10.5475 13.732 10.3939 13.9515 10.211L15.1146 9.21608Z" stroke="#56607A" stroke-width="1.5" stroke-linecap="round" stroke-linejoin="round"/>
<path d="M16.0288 13.3713V16.9046" stroke="#56607A" stroke-width="1.5" stroke-linecap="round" stroke-linejoin="round"/>
<path d="M16.0249 19.1285H16.0315" stroke="#56607A" stroke-width="2" stroke-linecap="round" stroke-linejoin="round"/>
</svg>
