<svg width="33" height="33" viewBox="0 0 33 33" fill="none" xmlns="http://www.w3.org/2000/svg">
<rect opacity="0.5" x="0.624023" y="0.816162" width="31.4913" height="31.4913" rx="10" fill="#CFFCDB"/>
<path d="M16.3696 23.8772C20.4099 23.8772 23.6851 20.602 23.6851 16.5618C23.6851 12.5216 20.4099 9.24634 16.3696 9.24634C12.3294 9.24634 9.0542 12.5216 9.0542 16.5618C9.0542 20.602 12.3294 23.8772 16.3696 23.8772Z" stroke="#2AB04F" stroke-width="1.5" stroke-miterlimit="10" stroke-linecap="round" stroke-linejoin="round"/>
<path d="M16.3696 18.6685C15.7039 18.6685 15.1626 18.1272 15.1626 17.4615V15.6546C15.1626 14.9889 15.7039 14.4475 16.3696 14.4475C17.0353 14.4475 17.5767 14.9889 17.5767 15.6546V17.4615C17.5767 18.1272 17.0353 18.6685 16.3696 18.6685Z" stroke="#2AB04F" stroke-width="1.5" stroke-linecap="round"/>
<path d="M20.0127 17.6372C19.8664 19.5246 18.2863 21.0023 16.3696 21.0023C14.3506 21.0023 12.7119 19.3636 12.7119 17.3446V15.7791C12.7119 13.76 14.3506 12.1213 16.3696 12.1213C18.2643 12.1213 19.8225 13.5625 20.0054 15.406" stroke="#2AB04F" stroke-width="1.5" stroke-linecap="round"/>
</svg>
