<svg width="132" height="132" viewBox="0 0 132 132" fill="none" xmlns="http://www.w3.org/2000/svg">
<path d="M66 11C35.64 11 11 35.64 11 66C11 96.36 35.64 121 66 121C96.36 121 121 96.36 121 66C121 35.64 96.36 11 66 11ZM88.165 68.915L71.665 85.415C70.84 86.24 69.795 86.625 68.75 86.625C67.705 86.625 66.66 86.24 65.835 85.415C64.24 83.82 64.24 81.18 65.835 79.585L75.295 70.125H46.75C44.495 70.125 42.625 68.255 42.625 66C42.625 63.745 44.495 61.875 46.75 61.875H75.295L65.835 52.415C64.24 50.82 64.24 48.18 65.835 46.585C67.43 44.99 70.07 44.99 71.665 46.585L88.165 63.085C89.76 64.68 89.76 67.32 88.165 68.915Z" fill="#1C202A"/>
</svg>
