<svg width="33" height="32" viewBox="0 0 33 32" fill="none" xmlns="http://www.w3.org/2000/svg">
<rect opacity="0.5" x="0.624023" y="0.342163" width="31.4913" height="31.4913" rx="10" fill="#FBE1D0"/>
<path d="M20.6198 13.1595C20.5773 13.1524 20.5277 13.1524 20.4852 13.1595C19.5077 13.1241 18.7285 12.3237 18.7285 11.332C18.7285 10.3191 19.5431 9.50452 20.556 9.50452C21.5689 9.50452 22.3835 10.3262 22.3835 11.332C22.3764 12.3237 21.5973 13.1241 20.6198 13.1595Z" stroke="#EC6D26" stroke-width="1.5" stroke-linecap="round" stroke-linejoin="round"/>
<path d="M19.8904 18.3162C20.8608 18.4791 21.9304 18.3091 22.6812 17.8062C23.68 17.1403 23.68 16.0495 22.6812 15.3837C21.9233 14.8808 20.8396 14.7108 19.8691 14.8808" stroke="#EC6D26" stroke-width="1.5" stroke-linecap="round" stroke-linejoin="round"/>
<path d="M12.0982 13.1595C12.1407 13.1524 12.1903 13.1524 12.2328 13.1595C13.2103 13.1241 13.9895 12.3237 13.9895 11.332C13.9895 10.3191 13.1749 9.50452 12.162 9.50452C11.1491 9.50452 10.3345 10.3262 10.3345 11.332C10.3416 12.3237 11.1207 13.1241 12.0982 13.1595Z" stroke="#EC6D26" stroke-width="1.5" stroke-linecap="round" stroke-linejoin="round"/>
<path d="M12.828 18.3162C11.8576 18.4791 10.788 18.3091 10.0371 17.8062C9.0384 17.1403 9.0384 16.0495 10.0371 15.3837C10.7951 14.8808 11.8788 14.7108 12.8492 14.8808" stroke="#EC6D26" stroke-width="1.5" stroke-linecap="round" stroke-linejoin="round"/>
<path d="M16.3693 18.4508C16.3268 18.4437 16.2772 18.4437 16.2347 18.4508C15.2572 18.4154 14.478 17.6149 14.478 16.6233C14.478 15.6104 15.2926 14.7958 16.3055 14.7958C17.3184 14.7958 18.133 15.6174 18.133 16.6233C18.1259 17.6149 17.3468 18.4224 16.3693 18.4508Z" stroke="#EC6D26" stroke-width="1.5" stroke-linecap="round" stroke-linejoin="round"/>
<path d="M14.3081 20.682C13.3094 21.3479 13.3094 22.4387 14.3081 23.1045C15.4415 23.8624 17.2973 23.8624 18.4306 23.1045C19.4294 22.4387 19.4294 21.3479 18.4306 20.682C17.3044 19.9312 15.4415 19.9312 14.3081 20.682Z" stroke="#EC6D26" stroke-width="1.5" stroke-linecap="round" stroke-linejoin="round"/>
</svg>
