<svg width="33" height="32" viewBox="0 0 33 32" fill="none" xmlns="http://www.w3.org/2000/svg">
<rect opacity="0.5" x="0.624023" y="0.324707" width="31.4913" height="31.4913" rx="10" fill="#E6EAF2"/>
<path d="M11.9805 14.6072V13.1442C11.9805 10.7227 12.712 8.75488 16.3697 8.75488C20.0275 8.75488 20.759 10.7227 20.759 13.1442V14.6072" stroke="#56607A" stroke-width="1.5" stroke-linecap="round" stroke-linejoin="round"/>
<path d="M20.0274 23.3857H12.7119C9.78574 23.3857 9.0542 22.6542 9.0542 19.728V18.2649C9.0542 15.3387 9.78574 14.6072 12.7119 14.6072H20.0274C22.9535 14.6072 23.6851 15.3387 23.6851 18.2649V19.728C23.6851 22.6542 22.9535 23.3857 20.0274 23.3857Z" stroke="#56607A" stroke-width="1.5" stroke-linecap="round" stroke-linejoin="round"/>
<path d="M19.2934 18.9964H19.3" stroke="#56607A" stroke-width="2" stroke-linecap="round" stroke-linejoin="round"/>
<path d="M16.3666 18.9964H16.3732" stroke="#56607A" stroke-width="2" stroke-linecap="round" stroke-linejoin="round"/>
<path d="M13.4399 18.9964H13.4464" stroke="#56607A" stroke-width="2" stroke-linecap="round" stroke-linejoin="round"/>
</svg>
