<svg width="33" height="33" viewBox="0 0 33 33" fill="none" xmlns="http://www.w3.org/2000/svg">
<rect opacity="0.5" x="0.624023" y="0.833496" width="31.4913" height="31.4913" rx="10" fill="#FFCCCC"/>
<path d="M11.9805 15.1162V13.6531C11.9805 11.2316 12.712 9.26379 16.3697 9.26379C20.0275 9.26379 20.759 11.2316 20.759 13.6531V15.1162" stroke="#ED3F3F" stroke-width="1.5" stroke-linecap="round" stroke-linejoin="round"/>
<path d="M16.3699 21.3342C17.3799 21.3342 18.1987 20.5154 18.1987 19.5054C18.1987 18.4953 17.3799 17.6765 16.3699 17.6765C15.3598 17.6765 14.541 18.4953 14.541 19.5054C14.541 20.5154 15.3598 21.3342 16.3699 21.3342Z" stroke="#ED3F3F" stroke-width="1.5" stroke-linecap="round" stroke-linejoin="round"/>
<path d="M20.0274 23.8946H12.7119C9.78574 23.8946 9.0542 23.1631 9.0542 20.2369V18.7738C9.0542 15.8476 9.78574 15.1161 12.7119 15.1161H20.0274C22.9535 15.1161 23.6851 15.8476 23.6851 18.7738V20.2369C23.6851 23.1631 22.9535 23.8946 20.0274 23.8946Z" stroke="#ED3F3F" stroke-width="1.5" stroke-linecap="round" stroke-linejoin="round"/>
</svg>
