<svg width="43" height="45" viewBox="0 0 43 45" fill="none" xmlns="http://www.w3.org/2000/svg">
<path d="M23.8881 13.6025L23.8881 13.6026L23.8922 13.5984C25.5715 11.881 28.2925 11.881 29.9718 13.5984C31.6534 15.3182 31.6534 18.1082 29.9718 19.828L27.0722 22.7935L26.9475 22.921L27.0722 23.0486L29.9394 25.9809C31.621 27.7007 31.621 30.4907 29.9394 32.2105C28.2601 33.9279 25.5391 33.9279 23.8598 32.2105L23.8598 32.2104L23.8557 32.2064L17.6561 26.2529L17.6562 26.2528L17.6513 26.2484C17.5781 26.183 17.5066 26.1146 17.4367 26.0432C16.8788 25.4726 16.506 24.7845 16.3183 24.0563L16.3181 24.0555C15.9314 22.5829 16.3036 20.947 17.4315 19.7935C17.5233 19.6996 17.6182 19.6108 17.7159 19.5272L17.7161 19.5274L17.7236 19.5202L23.8881 13.6025Z" fill="#1C202A" stroke="#1C202A" stroke-width="0.364923"/>
<path d="M16.1332 12.4537C17.9265 12.4537 19.4666 13.578 20.1115 15.1803L16.893 18.2288C16.7572 18.3437 16.6252 18.4656 16.4976 18.5944C14.9125 20.194 14.3918 22.4599 14.9336 24.4967C15.1972 25.5053 15.721 26.4593 16.5045 27.25C16.6017 27.348 16.7014 27.4421 16.8034 27.5321L20.1003 30.6561C19.4489 32.2437 17.9163 33.3551 16.1332 33.3551C13.7617 33.3551 11.8322 31.3878 11.8322 28.9523V16.8566C11.8322 14.4211 13.7617 12.4537 16.1332 12.4537Z" fill="#1C202A" stroke="#1C202A" stroke-width="0.364923"/>
<path opacity="0.5" fill-rule="evenodd" clip-rule="evenodd" d="M21.5325 43.4991C32.8722 43.4991 42.0649 34.0975 42.0649 22.5C42.0649 10.9025 32.8722 1.50089 21.5325 1.50089C10.1927 1.50089 1 10.9025 1 22.5C1 34.0975 10.1927 43.4991 21.5325 43.4991Z" stroke="#1C202A" stroke-width="1.06818"/>
</svg>
