<svg width="21" height="21" viewBox="0 0 21 21" fill="none" xmlns="http://www.w3.org/2000/svg">
<path d="M13.9421 10.7725V14.2725C13.9421 17.1891 12.7754 18.3558 9.85872 18.3558H6.35872C3.44206 18.3558 2.27539 17.1891 2.27539 14.2725V10.7725C2.27539 7.85581 3.44206 6.68915 6.35872 6.68915H9.85872C12.7754 6.68915 13.9421 7.85581 13.9421 10.7725Z" stroke="#2B55B7" stroke-width="1.5" stroke-linecap="round" stroke-linejoin="round"/>
<path d="M18.9421 5.77248V9.27248C18.9421 12.1891 17.7754 13.3558 14.8587 13.3558H13.9421V10.7725C13.9421 7.85581 12.7754 6.68915 9.85872 6.68915H7.27539V5.77248C7.27539 2.85581 8.44206 1.68915 11.3587 1.68915H14.8587C17.7754 1.68915 18.9421 2.85581 18.9421 5.77248Z" stroke="#2B55B7" stroke-width="1.5" stroke-linecap="round" stroke-linejoin="round"/>
</svg>
