<svg width="32" height="32" viewBox="0 0 32 32" fill="none" xmlns="http://www.w3.org/2000/svg">
<rect opacity="0.5" y="0.141113" width="31.4913" height="31.4913" rx="10" fill="#D7E3FF"/>
<path d="M11.3564 14.4238V12.9607C11.3564 10.5393 12.088 8.57141 15.7457 8.57141C19.4034 8.57141 20.135 10.5393 20.135 12.9607V14.4238" stroke="#2B55B7" stroke-width="1.5" stroke-linecap="round" stroke-linejoin="round"/>
<path d="M19.4033 23.2022H12.0879C9.16172 23.2022 8.43018 22.4707 8.43018 19.5445V18.0814C8.43018 15.1553 9.16172 14.4237 12.0879 14.4237H19.4033C22.3295 14.4237 23.0611 15.1553 23.0611 18.0814V19.5445C23.0611 22.4707 22.3295 23.2022 19.4033 23.2022Z" stroke="#2B55B7" stroke-width="1.5" stroke-linecap="round" stroke-linejoin="round"/>
<path d="M18.6694 18.813H18.6759" stroke="#2B55B7" stroke-width="2" stroke-linecap="round" stroke-linejoin="round"/>
<path d="M15.7426 18.813H15.7492" stroke="#2B55B7" stroke-width="2" stroke-linecap="round" stroke-linejoin="round"/>
<path d="M12.8159 18.813H12.8224" stroke="#2B55B7" stroke-width="2" stroke-linecap="round" stroke-linejoin="round"/>
</svg>
