<svg width="324" height="178" viewBox="0 0 324 178" fill="none" xmlns="http://www.w3.org/2000/svg">
<g opacity="0.2">
<rect width="531.814" height="89.895" rx="19.7386" transform="matrix(0.870356 0.492424 -0.923143 0.384456 237.468 123.735)" fill="#D9E1F2"/>
<rect width="531.814" height="89.895" rx="19.7386" transform="matrix(0.870356 0.492424 -0.923143 0.384456 133.913 170.445)" fill="#D9E1F2"/>
<path d="M283.338 152.734C291.504 149.333 304.364 150.107 312.063 154.463L659.758 351.18C663.459 353.273 665.293 355.813 665.293 358.265C665.293 360.913 663.153 363.458 658.912 365.224L621.147 380.952C612.982 384.352 600.121 383.578 592.422 379.222L244.727 182.506C241.027 180.412 239.192 177.872 239.192 175.421C239.192 172.772 241.332 170.228 245.573 168.462L283.338 152.734Z" fill="#0C0C0C"/>
<path d="M183.898 194.147C192.063 190.747 204.924 191.521 212.622 195.876L560.318 392.593C564.018 394.687 565.853 397.227 565.853 399.678C565.853 402.326 563.713 404.871 559.472 406.637L521.707 422.365C513.541 425.766 500.681 424.991 492.982 420.636L145.287 223.919C141.586 221.826 139.752 219.285 139.752 216.834C139.752 214.186 141.892 211.641 146.132 209.875L183.898 194.147Z" fill="#0C0C0C"/>
<path d="M84.4574 235.561C92.623 232.16 105.484 232.934 113.182 237.29L460.877 434.006C464.578 436.1 466.412 438.64 466.413 441.092C466.413 443.74 464.272 446.284 460.032 448.05L422.267 463.778C414.101 467.179 401.241 466.405 393.542 462.049L45.8467 265.333C42.1461 263.239 40.3117 260.699 40.3115 258.247C40.3113 255.599 42.4517 253.055 46.6922 251.289L84.4574 235.561Z" fill="#0C0C0C"/>
<path d="M283.337 6.56055C291.503 3.15987 304.363 3.93406 312.062 8.28976V154.463C304.363 150.107 291.503 149.333 283.337 152.734V6.56055Z" fill="#0C0C0C"/>
<path d="M283.338 6.56058L245.572 22.2885V168.462L283.338 152.734V6.56058Z" fill="#0C0C0C"/>
<path d="M245.572 22.2884C241.332 24.0544 239.191 26.599 239.191 29.2473V175.42C239.192 172.772 241.332 170.228 245.572 168.462V22.2884Z" fill="#0C0C0C"/>
<path d="M183.898 47.9739C192.064 44.5732 204.925 45.3474 212.623 49.7031V195.876C204.925 191.521 192.064 190.747 183.898 194.147V47.9739Z" fill="#0C0C0C"/>
<path d="M183.898 47.9739L146.133 63.7018V209.875L183.898 194.147V47.9739Z" fill="#0C0C0C"/>
<path d="M146.133 63.7018C141.892 65.4678 139.752 68.0124 139.752 70.6607V216.833C139.752 214.185 141.893 211.641 146.133 209.875V63.7018Z" fill="#0C0C0C"/>
<path d="M84.458 89.3873C92.6236 85.9866 105.484 86.7608 113.183 91.1165V237.29C105.484 232.934 92.6236 232.16 84.458 235.561V89.3873Z" fill="#0C0C0C"/>
<path d="M84.4576 89.3872L46.6924 105.115V251.288L84.4576 235.561V89.3872Z" fill="#0C0C0C"/>
<path d="M659.757 205.006L312.062 8.28976V154.463L659.757 351.18V205.006Z" fill="#0C0C0C"/>
<path d="M46.6922 105.115C42.4517 106.881 40.3113 109.426 40.3115 112.074V258.247C40.3118 255.599 42.4522 253.054 46.6922 251.288V105.115Z" fill="#0C0C0C"/>
<path d="M560.318 246.42L212.623 49.7031V195.876L560.318 392.593V246.42Z" fill="#0C0C0C"/>
<path d="M460.878 287.833L113.183 91.1165V237.29L460.878 434.006V287.833Z" fill="#0C0C0C"/>
<path fill-rule="evenodd" clip-rule="evenodd" d="M239.192 29.2473C239.193 31.6987 241.027 34.2388 244.728 36.3326V182.506C241.027 180.412 239.193 177.872 239.192 175.421V29.2473ZM244.728 36.3326L592.423 233.049C600.122 237.405 612.982 238.179 621.147 234.778L658.913 219.05V365.224L621.148 380.952C612.982 384.352 600.122 383.578 592.423 379.222L244.728 182.506V36.3326ZM665.294 212.092C665.293 214.74 663.153 217.285 658.913 219.05V365.224C663.154 363.458 665.294 360.913 665.294 358.265V212.092Z" fill="url(#paint0_linear_1536_10973)"/>
<path fill-rule="evenodd" clip-rule="evenodd" d="M139.752 70.6607C139.752 73.112 141.587 75.6522 145.287 77.7459V223.919C141.587 221.826 139.752 219.285 139.752 216.834V70.6607ZM145.287 77.7459L492.982 274.462C500.681 278.818 513.542 279.592 521.707 276.192L559.472 260.464V406.637L521.707 422.365C513.542 425.766 500.681 424.991 492.982 420.636L145.287 223.919V77.7459ZM565.853 253.506C565.853 256.154 563.713 258.698 559.473 260.464V406.637C563.713 404.871 565.854 402.326 565.853 399.678V253.506Z" fill="url(#paint1_linear_1536_10973)"/>
<path fill-rule="evenodd" clip-rule="evenodd" d="M40.3115 112.074C40.3117 114.525 42.1461 117.066 45.8467 119.159V265.333C42.1461 263.239 40.3117 260.699 40.3115 258.247V112.074ZM45.8469 119.159L393.542 315.876C401.241 320.231 414.101 321.006 422.267 317.605L460.031 301.877C464.271 300.111 466.412 297.567 466.412 294.919V441.092C466.412 443.74 464.272 446.285 460.032 448.051L422.267 463.778C414.101 467.179 401.241 466.405 393.542 462.049L45.8469 265.333V119.159Z" fill="url(#paint2_linear_1536_10973)"/>
<rect width="431.518" height="72.9415" rx="16.0161" transform="matrix(0.870356 0.492424 -0.923143 0.384456 298.122 0.403076)" fill="#EEF2FB"/>
<rect width="431.518" height="72.9415" rx="16.0161" transform="matrix(0.870356 0.492424 -0.923143 0.384456 198.682 41.8164)" fill="#EEF2FB"/>
<rect width="431.518" height="72.9415" rx="16.0161" transform="matrix(0.870356 0.492424 -0.923143 0.384456 99.2412 83.2298)" fill="#EEF2FB"/>
</g>
<defs>
<linearGradient id="paint0_linear_1536_10973" x1="589.254" y1="128.127" x2="498.961" y2="295.935" gradientUnits="userSpaceOnUse">
<stop stop-color="#D9E1F2"/>
<stop offset="1" stop-color="#525D7A"/>
</linearGradient>
<linearGradient id="paint1_linear_1536_10973" x1="489.814" y1="169.54" x2="399.521" y2="337.349" gradientUnits="userSpaceOnUse">
<stop stop-color="#D9E1F2"/>
<stop offset="1" stop-color="#525D7A"/>
</linearGradient>
<linearGradient id="paint2_linear_1536_10973" x1="390.373" y1="210.953" x2="300.08" y2="378.762" gradientUnits="userSpaceOnUse">
<stop stop-color="#D9E1F2"/>
<stop offset="1" stop-color="#525D7A"/>
</linearGradient>
</defs>
</svg>
