<svg width="33" height="33" viewBox="0 0 33 33" fill="none" xmlns="http://www.w3.org/2000/svg">
<rect opacity="0.5" x="0.624023" y="0.798828" width="31.4913" height="31.4913" rx="10" fill="#D7E3FF"/>
<path d="M19.6035 13.5816C21.3884 15.3666 21.3884 18.2635 19.6035 20.0485C17.8185 21.8334 14.9215 21.8334 13.1366 20.0485C11.3516 18.2635 11.3516 15.3666 13.1366 13.5816C14.9215 11.7967 17.8185 11.7967 19.6035 13.5816Z" stroke="#1D49AC" stroke-width="1.5" stroke-linecap="round" stroke-linejoin="round"/>
<path d="M13.6267 23.5965C12.1636 23.0113 10.8834 21.9505 10.0348 20.4801C9.20087 19.039 8.92288 17.4369 9.1204 15.908" stroke="#1D49AC" stroke-width="1.5" stroke-linecap="round" stroke-linejoin="round"/>
<path d="M11.8711 11.0431C13.1147 10.0701 14.6729 9.49219 16.3701 9.49219C18.0307 9.49219 19.5596 10.0555 20.7886 10.9918" stroke="#1D49AC" stroke-width="1.5" stroke-linecap="round" stroke-linejoin="round"/>
<path d="M19.1133 23.5965C20.5764 23.0113 21.8566 21.9505 22.7052 20.4801C23.5391 19.039 23.8171 17.4369 23.6196 15.908" stroke="#292D32" stroke-width="1.5" stroke-linecap="round" stroke-linejoin="round"/>
</svg>
