<svg width="32" height="33" viewBox="0 0 32 33" fill="none" xmlns="http://www.w3.org/2000/svg">
<rect opacity="0.5" x="0.125" y="0.513672" width="31.4913" height="31.4913" rx="10" fill="#D7E3FF"/>
<path d="M12.9434 8.94385V11.1385" stroke="#3A6AD5" stroke-width="1.5" stroke-miterlimit="10" stroke-linecap="round" stroke-linejoin="round"/>
<path d="M18.7969 8.94385V11.1385" stroke="#3A6AD5" stroke-width="1.5" stroke-miterlimit="10" stroke-linecap="round" stroke-linejoin="round"/>
<path d="M9.65234 14.1304H22.0886" stroke="#3A6AD5" stroke-width="1.5" stroke-miterlimit="10" stroke-linecap="round" stroke-linejoin="round"/>
<path d="M20.2602 24.3062C21.8762 24.3062 23.1863 22.9961 23.1863 21.38C23.1863 19.764 21.8762 18.4539 20.2602 18.4539C18.6441 18.4539 17.334 19.764 17.334 21.38C17.334 22.9961 18.6441 24.3062 20.2602 24.3062Z" stroke="#3A6AD5" stroke-width="1.5" stroke-miterlimit="10" stroke-linecap="round" stroke-linejoin="round"/>
<path d="M21.3499 21.4167H19.1699" stroke="#3A6AD5" stroke-width="1.5" stroke-miterlimit="10" stroke-linecap="round" stroke-linejoin="round"/>
<path d="M20.2598 20.3486V22.5359" stroke="#3A6AD5" stroke-width="1.5" stroke-miterlimit="10" stroke-linecap="round" stroke-linejoin="round"/>
<path d="M22.4549 13.6987V19.4487C21.9209 18.8415 21.1381 18.4538 20.2603 18.4538C18.6436 18.4538 17.3341 19.7632 17.3341 21.38C17.3341 21.9286 17.4877 22.448 17.7584 22.8869C17.912 23.1503 18.1095 23.3844 18.3363 23.5746H12.9448C10.3844 23.5746 9.28711 22.1115 9.28711 19.9169V13.6987C9.28711 11.5041 10.3844 10.041 12.9448 10.041H18.7972C21.3576 10.041 22.4549 11.5041 22.4549 13.6987Z" stroke="#3A6AD5" stroke-width="1.5" stroke-miterlimit="10" stroke-linecap="round" stroke-linejoin="round"/>
<path d="M15.8676 17.503H15.8742" stroke="#3A6AD5" stroke-width="2" stroke-linecap="round" stroke-linejoin="round"/>
<path d="M13.1586 17.503H13.1652" stroke="#3A6AD5" stroke-width="2" stroke-linecap="round" stroke-linejoin="round"/>
<path d="M13.1586 19.6976H13.1652" stroke="#3A6AD5" stroke-width="2" stroke-linecap="round" stroke-linejoin="round"/>
</svg>
