<svg width="14" height="14" viewBox="0 0 14 14" fill="none" xmlns="http://www.w3.org/2000/svg">
<path d="M8.07367 11.8839C7.69451 12.2035 7.08242 12.2035 6.71409 11.8839L5.85825 11.1527C5.69575 11.0173 5.387 10.9035 5.17034 10.9035L4.24951 10.9035C3.67534 10.9035 3.20409 10.4323 3.20409 9.85811L3.20409 8.93728C3.20409 8.72061 3.09034 8.41728 2.95492 8.25478L2.22367 7.39895C1.90409 7.01978 1.90409 6.4077 2.22367 6.03936L2.95492 5.18353C3.09034 5.02103 3.20409 4.7177 3.20409 4.50103L3.20409 3.5802C3.20409 3.00603 3.67534 2.53478 4.2495 2.53478L5.17034 2.53478C5.387 2.53478 5.69034 2.42103 5.85284 2.28561L6.70867 1.55436C7.08784 1.23478 7.69992 1.23478 8.06825 1.55436L8.92409 2.28561C9.08659 2.42103 9.39534 2.53478 9.60659 2.53478L10.5545 2.53478C11.1287 2.53478 11.5999 3.00603 11.5999 3.5802L11.5999 4.50645C11.5999 4.7177 11.7083 5.02645 11.8437 5.18353L12.5749 6.04478C12.8891 6.41853 12.8891 7.0252 12.5749 7.39895L11.8437 8.2602C11.7083 8.4227 11.5999 8.72603 11.5999 8.93728L11.5999 9.8527C11.5999 10.4269 11.1287 10.8981 10.5545 10.8981L9.61742 10.8981C9.40075 10.8981 9.09742 11.0119 8.93492 11.1473L8.07367 11.8839Z" stroke="#FE9D67" stroke-linecap="round" stroke-linejoin="round"/>
<path d="M7.39648 8.80728L7.39648 6.19103" stroke="#FE9D67" stroke-linecap="round" stroke-linejoin="round"/>
<path d="M7.40039 4.54436L7.39553 4.54436" stroke="#FE9D67" stroke-linecap="round" stroke-linejoin="round"/>
</svg>
