<svg width="25" height="25" viewBox="0 0 25 25" fill="none" xmlns="http://www.w3.org/2000/svg">
<path d="M17.0832 2.00116H14.4832C11.2832 2.00116 9.2832 4.00116 9.2832 7.20116V11.2512H15.5332C15.9432 11.2512 16.2832 11.5912 16.2832 12.0012C16.2832 12.4112 15.9432 12.7512 15.5332 12.7512H9.2832V16.8012C9.2832 20.0012 11.2832 22.0012 14.4832 22.0012H17.0732C20.2732 22.0012 22.2732 20.0012 22.2732 16.8012V7.20116C22.2832 4.00116 20.2832 2.00116 17.0832 2.00116Z" fill="#292D32"/>
<path d="M4.84314 11.2512L6.91314 9.18116C7.06314 9.03116 7.13314 8.84116 7.13314 8.65116C7.13314 8.46116 7.06314 8.26116 6.91314 8.12116C6.62314 7.83116 6.14314 7.83116 5.85314 8.12116L2.50314 11.4712C2.21314 11.7612 2.21314 12.2412 2.50314 12.5312L5.85314 15.8812C6.14314 16.1712 6.62314 16.1712 6.91314 15.8812C7.20314 15.5912 7.20314 15.1112 6.91314 14.8212L4.84314 12.7512H9.28314V11.2512H4.84314Z" fill="#292D32"/>
</svg>
