<svg width="25" height="24" viewBox="0 0 25 24" fill="none" xmlns="http://www.w3.org/2000/svg">
<path d="M19.4397 8C21.0966 8 22.4397 6.65685 22.4397 5C22.4397 3.34315 21.0966 2 19.4397 2C17.7828 2 16.4397 3.34315 16.4397 5C16.4397 6.65685 17.7828 8 19.4397 8Z" fill="#FECA54"/>
<path d="M20.2397 9.42C20.2197 9.42 20.1997 9.43 20.1797 9.43C20.0797 9.45 19.9797 9.46 19.8697 9.48C19.4497 9.52 18.9997 9.5 18.5397 9.41C18.4197 9.38 18.3197 9.36 18.2097 9.32C17.8797 9.24 17.5697 9.11 17.2797 8.94C17.1597 8.88 17.0397 8.8 16.9297 8.73C16.4497 8.4 16.0397 7.99 15.7097 7.51C15.6397 7.4 15.5597 7.28 15.4997 7.16C15.3297 6.87 15.1997 6.56 15.1197 6.23C15.0797 6.12 15.0597 6.02 15.0297 5.9C14.9397 5.44 14.9197 4.99 14.9597 4.57C14.9797 4.46 14.9897 4.36 15.0097 4.26C15.0097 4.24 15.0197 4.22 15.0197 4.2C15.1397 3.58 14.6797 3 14.0397 3H7.9597C7.8197 3 7.6797 3.01 7.5497 3.02C7.4297 3.03 7.3197 3.04 7.1997 3.06C7.0797 3.07 6.9597 3.09 6.8497 3.11C4.4397 3.46 2.8997 4.99 2.5497 7.41C2.5297 7.52 2.5097 7.64 2.4997 7.76C2.4797 7.88 2.4697 7.99 2.4597 8.11C2.4497 8.24 2.4397 8.38 2.4397 8.52V16.48C2.4397 16.62 2.4497 16.76 2.4597 16.89C2.4697 17.01 2.4797 17.12 2.4997 17.24C2.5097 17.36 2.5297 17.48 2.5497 17.59C2.8997 20.01 4.4397 21.54 6.8497 21.89C6.9597 21.91 7.0797 21.93 7.1997 21.94C7.3197 21.96 7.4297 21.97 7.5497 21.98C7.6797 21.99 7.8197 22 7.9597 22H15.9197C16.0597 22 16.1997 21.99 16.3297 21.98C16.4497 21.97 16.5597 21.96 16.6797 21.94C16.7997 21.93 16.9197 21.91 17.0297 21.89C19.4397 21.54 20.9797 20.01 21.3297 17.59C21.3497 17.48 21.3697 17.36 21.3797 17.24C21.3997 17.12 21.4097 17.01 21.4197 16.89C21.4297 16.76 21.4397 16.62 21.4397 16.48V10.4C21.4397 9.76 20.8597 9.3 20.2397 9.42ZM7.1897 12.5H12.1897C12.5997 12.5 12.9397 12.84 12.9397 13.25C12.9397 13.66 12.5997 14 12.1897 14H7.1897C6.7797 14 6.4397 13.66 6.4397 13.25C6.4397 12.84 6.7797 12.5 7.1897 12.5ZM16.1897 18H7.1897C6.7797 18 6.4397 17.66 6.4397 17.25C6.4397 16.84 6.7797 16.5 7.1897 16.5H16.1897C16.5997 16.5 16.9397 16.84 16.9397 17.25C16.9397 17.66 16.5997 18 16.1897 18Z" fill="#242936"/>
</svg>
