<svg width="32" height="33" viewBox="0 0 32 33" fill="none" xmlns="http://www.w3.org/2000/svg">
<rect opacity="0.6" x="0.283203" y="0.965332" width="31.4913" height="31.4913" rx="10" fill="#FAEFD1"/>
<path d="M17.2946 10.5002L18.5821 13.0752C18.7577 13.4337 19.2259 13.7775 19.6209 13.8433L21.9545 14.2311C23.4469 14.4798 23.798 15.5625 22.7227 16.6305L20.9084 18.4448C20.6012 18.752 20.4329 19.3446 20.528 19.7689L21.0474 22.0147C21.4571 23.7924 20.5134 24.48 18.9406 23.5509L16.7532 22.2561C16.3582 22.022 15.7071 22.022 15.3048 22.2561L13.1175 23.5509C11.552 24.48 10.601 23.785 11.0106 22.0147L11.53 19.7689C11.6251 19.3446 11.4569 18.752 11.1496 18.4448L9.33539 16.6305C8.26733 15.5625 8.61116 14.4798 10.1035 14.2311L12.4371 13.8433C12.8249 13.7775 13.293 13.4337 13.4686 13.0752L14.7561 10.5002C15.4584 9.10294 16.5996 9.10294 17.2946 10.5002Z" stroke="#FCBA1C" stroke-width="1.5" stroke-linecap="round" stroke-linejoin="round"/>
</svg>
