<svg width="33" height="32" viewBox="0 0 33 32" fill="none" xmlns="http://www.w3.org/2000/svg">
<rect opacity="0.5" x="0.624023" y="0.290039" width="31.4913" height="31.4913" rx="10" fill="#FBE1D0"/>
<path d="M18.9888 16.0357C18.9888 17.4841 17.8184 18.6546 16.3699 18.6546C14.9214 18.6546 13.751 17.4841 13.751 16.0357C13.751 14.5872 14.9214 13.4167 16.3699 13.4167C17.8184 13.4167 18.9888 14.5872 18.9888 16.0357Z" stroke="#EC6D26" stroke-width="1.5" stroke-linecap="round" stroke-linejoin="round"/>
<path d="M16.3701 22.0856C18.9524 22.0856 21.3592 20.564 23.0344 17.9304C23.6928 16.8989 23.6928 15.1652 23.0344 14.1337C21.3592 11.5001 18.9524 9.97852 16.3701 9.97852C13.7877 9.97852 11.3809 11.5001 9.70571 14.1337C9.04732 15.1652 9.04732 16.8989 9.70571 17.9304C11.3809 20.564 13.7877 22.0856 16.3701 22.0856Z" stroke="#EC6D26" stroke-width="1.5" stroke-linecap="round" stroke-linejoin="round"/>
</svg>
