<svg width="414" height="383" viewBox="0 0 414 383" fill="none" xmlns="http://www.w3.org/2000/svg">
<path d="M325.593 287.669C361.049 289.679 388.424 305.325 386.736 322.615C385.047 339.905 354.936 352.291 319.479 350.281L260.761 346.951L257.997 375.264C256.308 392.554 226.197 404.941 190.74 402.93C155.284 400.92 127.909 385.274 129.598 367.984L131.562 308.415C131.534 307.704 131.554 306.989 131.624 306.271C132.184 300.534 135.874 295.336 141.852 291.025C153.857 282.276 175.244 277.141 199.039 278.49C200.975 278.6 202.887 278.75 204.771 278.94L325.593 287.669Z" fill="#D9E1F2"/>
<path d="M274.23 276.231C285.968 265.317 282.945 251.064 264.473 240.506C240.595 226.859 199.946 224.554 173.681 235.358L48.2296 286.962C21.9644 297.766 20.0289 317.588 43.9066 331.235C62.2781 341.736 90.5776 345.522 114.615 341.788L115.24 309.412C115.19 308.487 115.204 307.557 115.282 306.623C115.908 299.159 120.607 292.411 128.292 286.827C143.724 275.491 171.404 268.899 202.324 270.754C204.839 270.905 207.324 271.108 209.774 271.362L274.23 276.231Z" fill="#D9E1F2"/>
<path d="M324.141 231.97C359.163 233.956 386.202 249.411 384.535 266.489C382.867 283.567 353.124 295.802 318.102 293.816L260.103 290.527C260.103 290.527 258.296 309.03 257.622 315.936C257.586 316.299 257.554 316.63 259.853 293.085C257.428 317.915 257.372 318.494 257.372 318.494C255.704 335.572 225.961 347.806 190.939 345.82C155.917 343.835 128.877 328.38 130.545 311.302C130.545 311.302 131.563 280.423 132.125 263.404C132.206 260.942 132.277 258.769 130.906 300.36C132.429 254.177 132.485 252.462 132.485 252.462C132.471 252.104 132.469 251.744 132.48 251.384C132.485 251.211 132.493 251.038 132.473 251.923C132.515 250.691 132.529 250.518 132.546 250.345C133.1 244.678 136.745 239.543 142.649 235.286C154.507 226.643 175.633 221.571 199.136 222.904C201.048 223.013 202.937 223.161 204.798 223.348L324.141 231.97Z" fill="#242936"/>
<path d="M273.407 220.673C277.975 216.425 280.28 211.665 280.279 206.818C280.278 199.364 274.825 191.705 263.769 185.385C240.183 171.905 200.032 169.628 174.088 180.3L50.173 231.272C36.3917 236.941 29.3916 245.123 29.3923 253.57C29.3929 261.024 34.8461 268.684 45.9029 275.004C64.0495 285.375 92.0025 289.115 115.746 285.427C115.746 285.427 115.769 284.236 115.806 282.314C115.828 281.177 115.855 279.784 115.885 278.23C115.986 272.98 116.123 265.894 116.224 260.644C116.254 259.09 116.281 257.697 116.303 256.56C116.34 254.638 116.363 253.447 116.363 253.447C116.347 253.15 116.338 252.852 116.335 252.553C116.333 252.346 116.334 252.137 116.339 251.929C116.345 251.647 116.357 251.364 116.376 251.081C116.384 250.952 116.394 250.822 116.404 250.692C117.023 243.32 121.665 236.654 129.255 231.138C144.499 219.942 171.839 213.43 202.38 215.262C204.865 215.411 207.32 215.612 209.74 215.863L273.407 220.673Z" fill="#242936"/>
<path d="M263.769 25.0128C240.183 11.5325 200.032 9.25572 174.088 19.9276V180.3C200.032 169.628 240.183 171.905 263.769 185.385V25.0128Z" fill="#242936"/>
<path d="M280.279 46.4455C280.278 38.9916 274.825 31.3321 263.769 25.0128V185.385C274.825 191.704 280.278 199.364 280.279 206.818V46.4455Z" fill="#242936"/>
<path d="M174.088 19.9275L50.1731 70.8996V231.272L174.088 180.3V19.9275Z" fill="#242936"/>
<path d="M273.407 60.3004C277.974 56.0537 280.279 51.2953 280.279 46.4499V206.818C280.28 211.665 277.975 216.425 273.407 220.673V60.3004Z" fill="#242936"/>
<path d="M209.74 55.4909C207.32 55.24 204.865 55.0388 202.38 54.8897V215.262C204.865 215.411 207.32 215.612 209.74 215.863V55.4909Z" fill="#242936"/>
<path d="M273.407 60.3004L209.74 55.4909V215.863L273.407 220.673V60.3004Z" fill="#242936"/>
<path d="M199.136 62.5317C201.048 62.6401 202.937 62.7887 204.798 62.9756V223.348C202.937 223.161 201.048 223.012 199.136 222.904V62.5317Z" fill="#242936"/>
<path d="M202.38 54.8897C171.839 53.0576 144.499 59.5694 129.255 70.766V231.138C144.499 219.942 171.839 213.43 202.38 215.262V54.8897Z" fill="#242936"/>
<path d="M204.798 62.9755L324.141 71.5979V231.97L204.798 223.348V62.9755Z" fill="#242936"/>
<path d="M142.649 74.9132C154.507 66.2709 175.633 61.199 199.136 62.5318V222.904C175.633 221.571 154.507 226.643 142.649 235.286V74.9132Z" fill="#242936"/>
<path d="M129.255 70.7661C121.665 76.2822 117.023 82.9477 116.404 90.3202V250.693C117.023 243.32 121.665 236.655 129.255 231.138V70.7661Z" fill="#242936"/>
<path d="M50.173 70.8998C36.3917 76.5687 29.3916 84.751 29.3923 93.1975V253.567C29.393 245.122 36.3931 236.94 50.173 231.272V70.8998Z" fill="#242936"/>
<path d="M132.546 89.9725C133.1 84.3052 136.745 79.1711 142.649 74.9132V235.286C136.745 239.543 133.1 244.678 132.546 250.345V89.9725Z" fill="#242936"/>
<path d="M324.14 71.5979C359.163 73.5838 386.202 89.0383 384.535 106.116V263.489C384.631 264.482 384.633 265.482 384.535 266.489V263.489C382.988 247.636 357.099 233.839 324.14 231.97V71.5979Z" fill="#242936"/>
<path d="M116.404 90.3201C116.394 90.4498 116.384 90.5794 116.376 90.709V251.081C116.384 250.952 116.394 250.822 116.404 250.692V90.3201Z" fill="#242936"/>
<path d="M132.473 91.5505C132.515 90.3189 132.529 90.1458 132.546 89.9726V250.345C132.529 250.518 132.515 250.691 132.473 251.923V91.5505Z" fill="#242936"/>
<path d="M116.376 90.709C116.357 90.992 116.345 91.2746 116.339 91.5568V251.929C116.345 251.647 116.357 251.364 116.376 251.081V90.709Z" fill="#242936"/>
<path d="M132.473 91.5505C132.476 91.4299 132.478 91.329 132.48 91.2451V91.0119C132.484 90.8623 132.491 90.7126 132.48 91.2451V251.384C132.485 251.211 132.493 251.038 132.473 251.923V91.5505Z" fill="#242936"/>
<path d="M132.48 91.9322C132.471 91.6261 132.471 91.3193 132.48 91.0119V91.9322C132.481 91.9847 132.483 92.0372 132.485 92.0897V252.462C132.471 252.104 132.469 251.744 132.48 251.384V91.9322Z" fill="#242936"/>
<path d="M116.335 92.1811C116.333 91.9732 116.334 91.7652 116.339 91.5569V251.929C116.337 252.015 116.336 252.101 116.335 252.187V252.553C116.334 252.432 116.334 252.309 116.335 252.187V92.1811Z" fill="#242936"/>
<path d="M116.335 92.181C116.338 92.4794 116.347 92.7774 116.363 93.0749V253.447C116.347 253.15 116.338 252.852 116.335 252.553V92.181Z" fill="#242936"/>
<path d="M116.363 93.0749L116.303 96.1878V256.56L116.363 253.447V93.0749Z" fill="#242936"/>
<path d="M116.303 96.1878L116.224 100.272V260.644L116.303 256.56V96.1878Z" fill="#242936"/>
<path d="M29.3923 93.1974C29.3929 100.652 34.8461 108.312 45.9029 114.631V275.004C34.8461 268.684 29.3929 261.024 29.3923 253.57V93.1974Z" fill="#1C202A"/>
<path d="M116.224 100.272L115.885 117.858V278.23L116.224 260.644V100.272Z" fill="#242936"/>
<path d="M130.906 139.988L132.485 92.0898V252.462L130.906 300.36V139.988Z" fill="#242936"/>
<path d="M384.535 106.116C382.867 123.195 353.124 135.429 318.102 133.443V293.816C353.124 295.802 382.867 283.567 384.535 266.489V106.116Z" fill="#1C202A"/>
<path d="M45.903 114.631C64.0496 125.003 92.0027 128.742 115.746 125.055V285.427C92.0027 289.115 64.0496 285.375 45.903 275.004V114.631Z" fill="#1C202A"/>
<path d="M115.885 117.858L115.806 121.942V282.314L115.885 278.23V117.858Z" fill="#242936"/>
<path d="M132.124 103.032L130.906 139.988V300.36L132.124 263.404V103.032Z" fill="#242936"/>
<path d="M115.806 121.942L115.746 125.055V285.427L115.806 282.314V121.942Z" fill="#242936"/>
<path d="M130.545 150.93L132.125 103.032V263.404L130.545 311.302V150.93Z" fill="#242936"/>
<path d="M318.102 133.444L260.103 130.155V290.527L318.102 293.816V133.444Z" fill="#1C202A"/>
<path d="M260.103 130.155L257.622 155.563V315.936L260.103 290.527V130.155Z" fill="#242936"/>
<path d="M257.622 155.563C257.677 154.996 258.041 151.271 259.853 132.712V293.085L257.622 315.936V155.563Z" fill="#242936"/>
<path d="M259.853 132.712L257.372 158.121V318.493L259.853 293.085V132.712Z" fill="#1C202A"/>
<path d="M130.545 153.929C130.448 152.937 130.447 151.936 130.545 150.93V153.929C132.092 169.782 157.98 183.579 190.939 185.448V345.82C155.917 343.835 128.877 328.38 130.545 311.302V153.929Z" fill="#1C202A"/>
<path d="M257.372 158.121C255.704 175.199 225.961 187.434 190.939 185.448V345.821C225.961 347.806 255.704 335.572 257.372 318.494V158.121Z" fill="#1C202A"/>
<path d="M324.1 72.016L324.114 72.0169L324.127 72.0177C358.665 73.9762 385.323 89.2124 383.678 106.054C382.033 122.907 352.675 134.983 318.115 133.024L260.116 129.735L259.286 129.688L259.246 130.093L256.515 158.059C254.87 174.912 225.512 186.988 190.952 185.028C156.414 183.07 129.756 167.834 131.401 150.992L131.402 150.985L131.402 150.978L133.342 92.1386L133.343 92.1311L133.342 92.1235C133.314 91.4306 133.334 90.734 133.402 90.0346C133.948 84.4429 137.545 79.377 143.372 75.1745L143.374 75.173C155.081 66.6402 175.935 61.6366 199.123 62.9515C201.01 63.0585 202.873 63.2051 204.709 63.3894L204.733 63.3918L204.758 63.3936L324.1 72.016Z" fill="#FCBA1C" stroke="#FCBA1C" stroke-width="1.35155"/>
<path d="M263.144 25.2699C280.995 35.4727 284.041 49.2294 272.889 59.8402L209.81 55.0752C207.373 54.8229 204.901 54.6204 202.399 54.4703C171.542 52.6192 143.925 59.1986 128.529 70.5063C120.862 76.0785 116.172 82.8127 115.548 90.2608C115.47 91.1898 115.456 92.1153 115.506 93.0364L114.894 124.73C91.5703 128.235 64.28 124.52 46.5277 114.374C23.284 101.089 25.1419 81.7727 50.7595 71.235L174.675 20.2629C200.293 9.72518 239.9 11.9848 263.144 25.2699Z" fill="#FCBA1C" stroke="#FCBA1C" stroke-width="1.35155"/>
</svg>
