<svg width="24" height="25" viewBox="0 0 24 25" fill="none" xmlns="http://www.w3.org/2000/svg">
<circle cx="12.5672" cy="13.2509" r="9.29032" fill="#2AB04F"/>
<path d="M16.4316 9.8064C16.2912 9.81072 16.1579 9.87136 16.06 9.97547L10.4969 15.7241L8.71707 13.8849C8.66726 13.8313 8.60761 13.7885 8.5416 13.7591C8.4756 13.7296 8.40456 13.714 8.33265 13.7133C8.26075 13.7125 8.18942 13.7266 8.12284 13.7547C8.05627 13.7828 7.99579 13.8243 7.94494 13.8768C7.89409 13.9294 7.8539 13.9919 7.82672 14.0607C7.79954 14.1295 7.78592 14.2032 7.78665 14.2775C7.78738 14.3518 7.80245 14.4252 7.83098 14.4934C7.85951 14.5616 7.90092 14.6232 7.9528 14.6747L10.1147 16.9087C10.2161 17.0134 10.3535 17.0722 10.4969 17.0722C10.6402 17.0722 10.7776 17.0134 10.879 16.9087L16.8243 10.7652C16.9024 10.6868 16.9557 10.5858 16.9773 10.4755C16.9989 10.3651 16.9877 10.2507 16.9453 10.147C16.9028 10.0434 16.8311 9.95538 16.7394 9.8946C16.6477 9.83382 16.5404 9.80308 16.4316 9.8064Z" fill="white"/>
</svg>
