<svg width="32" height="32" viewBox="0 0 32 32" fill="none" xmlns="http://www.w3.org/2000/svg">
<rect opacity="0.5" x="0.0195312" y="0.185028" width="31.4913" height="31.4913" rx="10" fill="#FFCCCC"/>
<path d="M22.3494 11.5268C19.9134 11.2854 17.4627 11.161 15.0194 11.161C13.5709 11.161 12.1224 11.2342 10.674 11.3805L9.18164 11.5268" stroke="#ED3F3F" stroke-width="1.5" stroke-linecap="round" stroke-linejoin="round"/>
<path d="M13.2051 10.7879L13.366 9.82961C13.4831 9.13465 13.5709 8.61525 14.8072 8.61525H16.7238C17.9601 8.61525 18.0552 9.16391 18.165 9.83693L18.3259 10.7879" stroke="#ED3F3F" stroke-width="1.5" stroke-linecap="round" stroke-linejoin="round"/>
<path d="M20.7761 13.8385L20.3006 21.2051C20.2201 22.3536 20.1543 23.2461 18.1132 23.2461H13.4167C11.3757 23.2461 11.3099 22.3536 11.2294 21.2051L10.7539 13.8385" stroke="#ED3F3F" stroke-width="1.5" stroke-linecap="round" stroke-linejoin="round"/>
<path d="M14.543 19.2226H16.979" stroke="#ED3F3F" stroke-width="1.5" stroke-linecap="round" stroke-linejoin="round"/>
<path d="M13.9355 16.2965H17.5933" stroke="#ED3F3F" stroke-width="1.5" stroke-linecap="round" stroke-linejoin="round"/>
</svg>
