<svg width="32" height="32" viewBox="0 0 32 32" fill="none" xmlns="http://www.w3.org/2000/svg">
<rect y="0.123779" width="31.4913" height="31.4913" rx="10" fill="#F3F6FB"/>
<path d="M23.0391 20.5002C23.0391 20.7636 22.9806 21.0342 22.8562 21.2976C22.7319 21.5609 22.5709 21.8097 22.3588 22.0438C22.0003 22.4388 21.6053 22.7241 21.1591 22.907C20.7201 23.0899 20.2446 23.185 19.7325 23.185C18.9864 23.185 18.189 23.0094 17.3477 22.6509C16.5064 22.2925 15.6652 21.8097 14.8312 21.2025C13.9899 20.588 13.1925 19.9076 12.4317 19.1542C11.6782 18.3934 10.9979 17.596 10.3907 16.762C9.79085 15.928 9.30803 15.0941 8.95689 14.2674C8.60575 13.4335 8.43018 12.6361 8.43018 11.8753C8.43018 11.3778 8.51796 10.9023 8.69353 10.4634C8.8691 10.0172 9.14709 9.6075 9.53481 9.24173C10.003 8.78086 10.5151 8.55408 11.0564 8.55408C11.2613 8.55408 11.4661 8.59797 11.649 8.68576C11.8392 8.77354 12.0074 8.90522 12.1391 9.09542L13.8363 11.4876C13.968 11.6705 14.0631 11.8387 14.1289 11.9997C14.1947 12.1533 14.2313 12.3069 14.2313 12.4459C14.2313 12.6215 14.1801 12.797 14.0777 12.9653C13.9826 13.1335 13.8436 13.3091 13.668 13.4847L13.1121 14.0626C13.0316 14.1431 12.995 14.2382 12.995 14.3552C12.995 14.4137 13.0023 14.465 13.017 14.5235C13.0389 14.582 13.0609 14.6259 13.0755 14.6698C13.2072 14.9112 13.4339 15.2258 13.7558 15.6062C14.085 15.9866 14.4362 16.3743 14.8166 16.762C15.2116 17.1497 15.592 17.5082 15.9797 17.8374C16.3601 18.1593 16.6747 18.3787 16.9234 18.5104C16.96 18.525 17.0039 18.547 17.0551 18.5689C17.1136 18.5909 17.1721 18.5982 17.238 18.5982C17.3623 18.5982 17.4574 18.5543 17.5379 18.4738L18.0939 17.9252C18.2768 17.7423 18.4523 17.6033 18.6206 17.5155C18.7888 17.4131 18.9571 17.3619 19.14 17.3619C19.279 17.3619 19.4253 17.3911 19.5862 17.457C19.7472 17.5228 19.9154 17.6179 20.0983 17.7423L22.5197 19.4614C22.7099 19.5931 22.8416 19.7467 22.9221 19.9296C22.9952 20.1125 23.0391 20.2954 23.0391 20.5002Z" stroke="#A7B1C5" stroke-width="1.5" stroke-miterlimit="10"/>
</svg>
