<svg width="32" height="33" viewBox="0 0 32 33" fill="none" xmlns="http://www.w3.org/2000/svg">
<rect y="0.632446" width="31.4913" height="31.4913" rx="10" fill="#FAEFD1"/>
<path d="M14.6412 9.231L10.9908 10.599C10.1496 10.9135 9.46191 11.9084 9.46191 12.8082V18.2436C9.46191 19.1068 10.0325 20.2407 10.7275 20.7601L13.8731 23.1084C14.9046 23.8838 16.6018 23.8838 17.6333 23.1084L20.7789 20.7601C21.4739 20.2407 22.0445 19.1068 22.0445 18.2436V12.8082C22.0445 11.9084 21.3568 10.9135 20.5155 10.599L16.8651 9.231C16.2433 9.00422 15.2484 9.00422 14.6412 9.231Z" stroke="#FCBA1C" stroke-width="1.5" stroke-linecap="round" stroke-linejoin="round"/>
<path d="M15.7455 15.5881C15.7162 15.5881 15.6796 15.5881 15.6504 15.5881C14.9627 15.5662 14.4141 14.9956 14.4141 14.3006C14.4141 13.591 14.992 13.0131 15.7016 13.0131C16.4112 13.0131 16.9891 13.591 16.9891 14.3006C16.9818 15.0029 16.4331 15.5662 15.7455 15.5881Z" stroke="#FCBA1C" stroke-width="1.5" stroke-linecap="round" stroke-linejoin="round"/>
<path d="M14.2899 17.6365C13.5876 18.1047 13.5876 18.8728 14.2899 19.341C15.0873 19.875 16.3967 19.875 17.1941 19.341C17.8964 18.8728 17.8964 18.1047 17.1941 17.6365C16.4041 17.1025 15.0946 17.1025 14.2899 17.6365Z" stroke="#FCBA1C" stroke-width="1.5" stroke-linecap="round" stroke-linejoin="round"/>
</svg>
