<svg width="32" height="33" viewBox="0 0 32 33" fill="none" xmlns="http://www.w3.org/2000/svg">
<rect opacity="0.5" x="0.125" y="0.982666" width="31.4913" height="31.4913" rx="10" fill="#CFFCDB"/>
<path d="M15.8711 24.0438C19.9113 24.0438 23.1866 20.7685 23.1866 16.7283C23.1866 12.6881 19.9113 9.41289 15.8711 9.41289C11.8309 9.41289 8.55566 12.6881 8.55566 16.7283C8.55566 20.7685 11.8309 24.0438 15.8711 24.0438Z" stroke="#2AB04F" stroke-width="1.5" stroke-linecap="round" stroke-linejoin="round"/>
<path d="M12.9448 10.1444H13.6763C12.2498 14.4167 12.2498 19.04 13.6763 23.3122H12.9448" stroke="#2AB04F" stroke-width="1.5" stroke-linecap="round" stroke-linejoin="round"/>
<path d="M18.0664 10.1444C19.4929 14.4167 19.4929 19.04 18.0664 23.3122" stroke="#2AB04F" stroke-width="1.5" stroke-linecap="round" stroke-linejoin="round"/>
<path d="M9.28711 19.6545V18.923C13.5593 20.3495 18.1827 20.3495 22.4549 18.923V19.6545" stroke="#2AB04F" stroke-width="1.5" stroke-linecap="round" stroke-linejoin="round"/>
<path d="M9.28711 14.5337C13.5593 13.1072 18.1827 13.1072 22.4549 14.5337" stroke="#2AB04F" stroke-width="1.5" stroke-linecap="round" stroke-linejoin="round"/>
</svg>
